<?xml version="1.0" encoding="utf-8"?>
<!-- Generator: Adobe Illustrator 19.0.0, SVG Export Plug-In . SVG Version: 6.00 Build 0)  -->
<svg version="1.1" id="Layer_1" xmlns="http://www.w3.org/2000/svg" xmlns:xlink="http://www.w3.org/1999/xlink" x="0px" y="0px"
	 viewBox="0 0 500 500" style="enable-background:new 0 0 500 500;" xml:space="preserve">
<style type="text/css">
	.st0{fill:#EF2C2F;}
</style>
<g id="layer1" transform="translate(-361.2513,-478.32461)">
	<g id="g1669" transform="matrix(10.91012,0,0,10.91012,306.2855,-10891.25)">
		<path id="path120563" class="st0" d="M17.2,1063.6l0.2-1.8h-5.7h-0.1l-0.2,1.8H17.2z"/>
		<path id="path120567" class="st0" d="M30.2,1063.6c0-0.3,0.1-1,0-1.2c-0.2-0.3-0.4-0.5-0.9-0.6H18.8c-0.4,0-0.6,0.2-0.9,0.6
			c-0.2,0.3-0.3,1-0.3,1.3H30.2z"/>
		<path id="path120571" class="st0" d="M24,1064.3l-0.4,3.9h2.2l0.2-2.5h3c0.7-0.1,1-0.9,1-1.5H24z"/>
		<path id="path120575" class="st0" d="M36.9,1063.6l0-1.1c-0.1-0.4-0.4-0.7-0.9-0.7h-5.3h-0.1l-0.2,1.8H36.9z"/>
		<path id="path120579" class="st0" d="M34.5,1064.3l-0.4,3.9h2.2l0.5-3.9H34.5z"/>
		<path id="path120583" class="st0" d="M30.4,1064.3l-0.4,3.9h2.2l0.5-3.9H30.4z"/>
		<path id="path120587" class="st0" d="M23.1,1064.3h-5.6c0,0.2-0.1,0.5,0.1,0.9c0.2,0.6,0.8,0.6,0.8,0.6l3.1,0l-0.1,0.6l-4.1,0
			l-0.2,1.8h5.2c0.4,0,0.9-0.3,1.2-1.1c0-0.2,0.2-1.8,0.2-1.9C23.7,1064.8,23.4,1064.4,23.1,1064.3"/>
		<path id="path120591" class="st0" d="M17,1065.9l0.2-1.6h-5.8l-0.4,3.9h5.7l0.2-1.8h-3.4l0.1-0.5L17,1065.9z"/>
		<path id="path120595" class="st0" d="M39.4,1061.9l4.5,0c0,0,1,0,0.9,0.8l-0.2,2.3c0,0-0.1,0.7-0.8,0.7h-2.7l-0.1,0.7h3.4
			l-0.2,1.6h-5.6l0.3-2.9c0,0,0-0.8,0.8-0.8h2.7l0.1-0.7h-3.4L39.4,1061.9z"/>
	</g>
</g>
</svg>
